<?xml version="1.0" encoding="iso-8859-1"?>
<!-- Generator: Adobe Illustrator 19.0.0, SVG Export Plug-In . SVG Version: 6.00 Build 0)  -->
<svg version="1.1" id="Capa_1" xmlns="http://www.w3.org/2000/svg" xmlns:xlink="http://www.w3.org/1999/xlink" x="0px" y="0px"
	 viewBox="0 0 512 512" style="enable-background:new 0 0 512 512;" xml:space="preserve">
<path style="fill:#FFB64C;" d="M469.353,85.113v263.78c0,34.631-19.121,65.863-49.922,81.613L297.867,501.96l-0.43,0.21
	c-12.971,6.55-27.201,9.83-41.442,9.83c-14.231,0-28.461-3.28-41.442-9.83l-0.84-0.46L92.569,430.507
	c-30.811-15.751-49.922-46.982-49.922-81.613V85.113c0-14.171,9.52-26.611,23.181-30.321L251.025,0.66l0.2-0.05
	c1.56-0.41,3.17-0.61,4.77-0.61c1.61,0,3.22,0.2,4.78,0.61l0.38,0.11l185.007,54.072C459.833,58.502,469.353,70.943,469.353,85.113z
	"/>
<path style="fill:#FF9F00;" d="M469.353,85.113v263.78c0,34.631-19.121,65.863-49.922,81.613L297.867,501.96l-0.43,0.21
	c-12.971,6.55-27.201,9.83-41.442,9.83V0c1.61,0,3.22,0.2,4.78,0.61l0.38,0.11l185.007,54.072
	C459.833,58.502,469.353,70.943,469.353,85.113z"/>
<path style="fill:#FFFFFF;" d="M333.143,223.994v76.633c0,23.781-19.341,43.122-43.122,43.122h-67.573
	c-23.781,0-43.122-19.341-43.122-43.122v-76.633l64.242-54.502c3.6-3.05,8-4.6,12.42-4.65c4.57-0.07,9.17,1.48,12.911,4.65
	L333.143,223.994z"/>
<path style="fill:#DCE6EB;" d="M333.143,223.994v76.633c0,23.781-19.341,43.122-43.122,43.122H255.99V164.841
	c4.57-0.07,9.17,1.48,12.911,4.65L333.143,223.994z"/>
<path style="fill:#FF7D43;" d="M368.254,257.275c-2.97,3.51-7.2,5.31-11.46,5.31c-3.42,0-6.87-1.17-9.68-3.55l-90.874-76.953
	l-0.25,0.21l-91.094,77.293c-2.82,2.39-6.27,3.56-9.7,3.56c-4.25,0-8.48-1.8-11.45-5.3c-5.36-6.31-4.58-15.781,1.74-21.141
	l101.044-85.723c0.06-0.05,0.13-0.1,0.2-0.15c0.23-0.19,0.47-0.37,0.71-0.55c0.17-0.12,0.33-0.24,0.5-0.35
	c0.24-0.16,0.49-0.31,0.74-0.45c0.18-0.11,0.37-0.22,0.55-0.32c0.24-0.12,0.47-0.23,0.71-0.34c0.22-0.1,0.43-0.2,0.65-0.29
	c0.22-0.09,0.44-0.17,0.67-0.25c0.23-0.08,0.47-0.17,0.71-0.24c0.22-0.06,0.44-0.11,0.65-0.17c0.26-0.06,0.51-0.12,0.76-0.17
	c0.22-0.04,0.45-0.07,0.67-0.11c0.25-0.03,0.5-0.07,0.75-0.09c0.24-0.03,0.48-0.04,0.72-0.05c0.15-0.01,0.31-0.01,0.47-0.01
	c0.07-0.01,0.15-0.01,0.23-0.01c0.26,0,0.52,0.01,0.78,0.02c0.21,0.01,0.43,0.02,0.64,0.04c0.27,0.03,0.55,0.07,0.82,0.11
	c0.2,0.03,0.4,0.06,0.6,0.09c0.27,0.06,0.55,0.12,0.82,0.19c0.2,0.05,0.39,0.1,0.59,0.15c0.25,0.08,0.51,0.17,0.77,0.26
	c0.2,0.07,0.41,0.15,0.62,0.23c0.23,0.09,0.45,0.2,0.67,0.3c0.23,0.11,0.46,0.21,0.69,0.33c0.19,0.1,0.38,0.21,0.57,0.32
	c0.25,0.15,0.49,0.3,0.73,0.45c0.17,0.12,0.33,0.24,0.5,0.35c0.24,0.18,0.48,0.36,0.72,0.55c0.06,0.06,0.13,0.1,0.19,0.15
	l100.564,85.163C372.815,241.494,373.605,250.955,368.254,257.275z"/>
<path style="fill:#FF641A;" d="M368.254,257.275c-2.97,3.51-7.2,5.31-11.46,5.31c-3.42,0-6.87-1.17-9.68-3.55l-90.874-76.953
	l-0.25,0.21v-34.851c0.07-0.01,0.15-0.01,0.23-0.01c0.26,0,0.52,0.01,0.78,0.02c0.21,0.01,0.43,0.02,0.64,0.04
	c0.27,0.03,0.55,0.07,0.82,0.11c0.2,0.03,0.4,0.06,0.6,0.09c0.27,0.06,0.55,0.12,0.82,0.19c0.2,0.05,0.39,0.1,0.59,0.15
	c0.25,0.08,0.51,0.17,0.77,0.26c0.2,0.07,0.41,0.15,0.62,0.23c0.23,0.09,0.45,0.2,0.67,0.3c0.23,0.11,0.46,0.21,0.69,0.33
	c0.19,0.1,0.38,0.21,0.57,0.32c0.25,0.15,0.49,0.3,0.73,0.45c0.17,0.12,0.33,0.24,0.5,0.35c0.24,0.18,0.48,0.36,0.72,0.55
	c0.06,0.06,0.13,0.1,0.19,0.15l100.564,85.163C372.815,241.494,373.605,250.955,368.254,257.275z"/>
</svg>
